<?xml version="1.0" encoding="UTF-8" standalone="yes"?>
<svg viewBox="0 0 125 125" version="1.2" baseProfile="tiny-ps" xmlns="http://www.w3.org/2000/svg">
  <title>OpticGrid</title>
  <path fill="#be1e2d" d="m118.3,72.48c0-15.43-5.43-28.6-16.28-39.52-10.85-10.91-24-16.38-39.42-16.38s-28.77,5.43-39.62,16.28S6.7,56.92,6.7,72.48c0,13.85,4.31,25.82,12.9,35.94h21.19c-7.36-5.45-12.01-12.79-13.92-22.04-2.07-9.99-.33-19.21,5.21-27.64,5.55-8.43,13.31-13.68,23.31-15.75,13.2-2.73,24.56.84,34.09,10.71l2.17-1.98c-4.78-5.02-10.45-8.57-17-10.63s-13.17-2.4-19.87-1.02c-10.87,2.25-19.29,7.91-25.25,16.99-5.97,9.07-7.83,19.05-5.58,29.91,1.51,7.29,4.58,13.47,9.16,18.55h-1.4c-.36-.34-.73-.66-1.09-1.02-8.76-8.72-13.14-19.36-13.14-31.94s4.38-23.26,13.14-32.04,19.42-13.17,31.97-13.17,23.18,4.39,31.87,13.17c8.69,8.78,13.04,19.46,13.04,32.04s-4.35,23.23-13.04,31.94c-.35.35-.72.68-1.08,1.02h-.85c1.27-1.44,2.48-2.99,3.58-4.66,5.97-9.05,7.84-18.98,5.6-29.82l-.3-1.45-39.01,8.06.6,2.91,36.1-7.46c1.61,9.75-.37,18.65-5.94,26.7-1.47,2.13-3.11,4.02-4.87,5.72h-.09v.09c-1.03.99-2.09,1.93-3.22,2.78h20.28s.03.01.03.01c8.66-10.18,13-22.16,13-35.94v.02Z"/>
</svg>
