<svg xmlns="http://www.w3.org/2000/svg" viewBox="0 0 353.73 49.86">
  <g>
    <path fill="white" d="m25.66,0c7.19,0,13.28,2.42,18.27,7.26,4.99,4.83,7.49,10.73,7.49,17.69s-2.5,12.82-7.49,17.66c-4.99,4.83-11.09,7.25-18.27,7.25s-13.23-2.42-18.21-7.25C2.48,37.77,0,31.88,0,24.95S2.48,12.09,7.46,7.26C12.43,2.42,18.5,0,25.66,0Zm.14,46.38c6.05,0,11.15-2.07,15.31-6.21,4.16-4.14,6.24-9.22,6.24-15.22s-2.08-11.12-6.24-15.26c-4.16-4.14-9.27-6.21-15.31-6.21s-11.21,2.07-15.42,6.21c-4.21,4.14-6.31,9.23-6.31,15.26s2.1,11.08,6.31,15.22c4.21,4.14,9.35,6.21,15.42,6.21Z"/>
    <path fill="white" d="m56.34.63h13.4c5.12,0,9.05,1.15,11.78,3.45,2.73,2.3,4.09,5.43,4.09,9.39s-1.37,7.19-4.12,9.53-6.78,3.51-12.09,3.51h-9.29v22.72h-3.76V.63Zm3.76,3.13v19.62h9.05c4.06,0,7.14-.86,9.26-2.58,2.11-1.72,3.17-4.14,3.17-7.27s-1.03-5.37-3.1-7.13c-2.06-1.76-5.02-2.64-8.87-2.64h-9.5Z"/>
    <path fill="white" d="m126.21.63v3.13h-18.23v45.48h-3.79V3.76h-18.23V.63h40.26Z"/>
    <path fill="white" d="m134.42.63v48.61h-3.76V.63h3.76Z"/>
    <path fill="white" d="m181.75,4.07v4.11c-5.89-3.13-11.67-4.7-17.33-4.7-6.03,0-11.07,2.05-15.13,6.16-4.06,4.11-6.09,9.23-6.09,15.38s2.04,11.33,6.12,15.35c4.08,4.01,9.29,6.02,15.62,6.02,5.29,0,11.05-1.66,17.29-4.98v3.9c-5.75,3.04-11.49,4.56-17.22,4.56-7.4,0-13.56-2.37-18.5-7.11-4.93-4.75-7.39-10.65-7.39-17.73s2.52-13.07,7.55-17.85c5.03-4.78,11.03-7.17,17.99-7.17,5.47,0,11.17,1.36,17.08,4.07Z"/>
    <path fill="white" d="m229.7,45.83c-1.04.39-1.94.72-2.68.97-.74.25-1.46.49-2.14.7-.68.21-1.67.48-2.97.8-2.2.51-4.4.9-6.59,1.16-2.19.27-4.51.4-6.94.4-4.9,0-9.42-.89-13.57-2.68-4.15-1.79-7.47-4.56-9.97-8.32-2.5-3.76-3.74-8.37-3.74-13.85,0-3.53.64-6.99,1.93-10.39,1.29-3.4,3.25-6.12,5.9-8.16,2.18-1.69,4.39-2.99,6.63-3.88,2.24-.9,4.42-1.49,6.56-1.79,2.13-.3,4.49-.45,7.06-.45,4.24,0,7.75.32,10.51.96,2.76.64,5.79,1.48,9.08,2.52v11.41c-2.18-1.28-4.49-2.34-6.92-3.2-2.44-.86-5.48-1.29-9.12-1.29-4.2,0-7.56.8-10.07,2.38-2.52,1.59-4.27,3.49-5.25,5.69-.99,2.2-1.48,4.34-1.48,6.4,0,2.44.57,4.68,1.7,6.73,1.14,2.05,2.85,3.7,5.15,4.94,2.29,1.24,5.07,1.86,8.32,1.86,1.86,0,3.83-.24,5.92-.73v-5.67h-6.54v-9.71h19.24v23.17Z"/>
    <path fill="white" d="m282.15,49.24h-15.62l-3.79-8.56c-1.39-3.13-2.65-5.42-3.76-6.87-1.11-1.45-2.2-2.37-3.25-2.78-1.06-.4-2.42-.61-4.09-.61h-1.64v18.82h-14.54V1.01h24.74c3.99,0,7.26.81,9.81,2.44,2.55,1.62,4.39,3.6,5.52,5.92,1.13,2.32,1.69,4.52,1.69,6.61,0,2.44-.47,4.49-1.41,6.18-.94,1.68-1.93,2.9-2.98,3.67-1.04.77-2.22,1.5-3.52,2.19,1.55.9,2.84,1.98,3.85,3.22,1.01,1.24,2.38,3.75,4.12,7.53l4.87,10.47Zm-19.77-32.99c0-2.23-.73-3.78-2.19-4.66-1.46-.88-3.84-1.32-7.13-1.32h-3.06v11.62h3.13c3.55,0,5.98-.39,7.29-1.17,1.31-.78,1.96-2.27,1.96-4.47Z"/>
    <path fill="white" d="m299.09,49.24h-14.54V1.01h14.54v48.23Z"/>
    <path fill="white" d="m353.73,25.99c0,4.94-.9,8.91-2.7,11.9-1.8,2.99-3.91,5.42-6.35,7.27-3.46,2.71-8.29,4.07-14.51,4.07h-26.03V1.01h20.04c3.01,0,5.6.15,7.74.47,2.15.31,4.08.75,5.8,1.32,1.72.57,3.18,1.21,4.38,1.91,1.21.71,2.29,1.47,3.24,2.28,1.65,1.35,3.09,2.93,4.33,4.77,1.24,1.83,2.23,3.95,2.96,6.37.73,2.41,1.1,5.03,1.1,7.86Zm-14.79-.63c0-3.92-.75-6.98-2.24-9.17-1.49-2.19-3.29-3.66-5.39-4.4-2.1-.74-4.24-1.11-6.42-1.11h-6.19v28.57h6.19c3.8,0,7.1-.9,9.88-2.71,2.78-1.81,4.17-5.53,4.17-11.17Z"/>
  </g>
</svg>
