<?xml version="1.0" standalone="no"?>
<!DOCTYPE svg PUBLIC "-//W3C//DTD SVG 20010904//EN"
 "http://www.w3.org/TR/2001/REC-SVG-20010904/DTD/svg10.dtd">
<svg version="1.0" xmlns="http://www.w3.org/2000/svg"
 width="700.000000pt" height="700.000000pt" viewBox="0 0 700.000000 700.000000"
 preserveAspectRatio="xMidYMid meet">
<metadata>
Created by potrace 1.14, written by Peter Selinger 2001-2017
</metadata>
<g transform="translate(0.000000,700.000000) scale(0.100000,-0.100000)"
fill="#000000" stroke="none">
<path d="M3269 6066 c-2 -2 -43 -6 -91 -10 -48 -4 -93 -8 -100 -11 -7 -2 -36
-6 -63 -9 -121 -13 -394 -77 -535 -126 -542 -186 -993 -500 -1400 -976 -86
-99 -233 -311 -307 -439 -189 -327 -325 -734 -369 -1102 -2 -18 -6 -50 -9 -70
-22 -187 -23 -645 0 -763 2 -12 7 -48 11 -79 24 -219 112 -547 207 -771 31
-74 142 -297 170 -342 89 -142 226 -339 253 -363 6 -5 21 -25 33 -43 l22 -32
595 0 595 0 -62 50 c-405 325 -658 778 -738 1320 -60 402 -4 781 169 1145 207
438 536 778 945 975 159 77 374 149 520 174 17 3 53 10 80 15 28 5 77 12 110
16 33 4 76 8 95 11 49 5 262 5 340 -1 425 -33 852 -237 1200 -572 36 -34 70
-63 75 -63 6 0 34 24 63 53 l53 54 -68 66 c-93 90 -229 198 -338 269 -79 52
-285 161 -371 195 -183 75 -457 141 -659 158 -122 10 -375 5 -454 -10 -16 -3
-77 -12 -136 -21 -59 -9 -265 -65 -350 -95 -109 -38 -245 -97 -332 -145 -599
-327 -1042 -985 -1120 -1664 -10 -84 -10 -396 0 -480 13 -111 17 -144 22 -160
3 -8 7 -33 10 -55 4 -22 8 -48 11 -57 3 -10 7 -30 10 -45 10 -61 69 -244 113
-356 78 -195 189 -379 356 -584 l26 -33 -39 0 c-37 0 -46 6 -138 103 -55 56
-112 120 -129 140 -16 21 -40 50 -53 65 -45 52 -191 278 -234 362 -74 143
-175 398 -192 485 -3 11 -10 43 -16 70 -19 82 -20 85 -42 220 -28 178 -31 643
-4 780 2 11 7 45 12 75 4 30 8 57 9 60 1 3 5 23 9 45 67 338 235 695 474 1005
152 197 444 459 672 604 171 109 440 224 655 282 37 10 257 54 290 58 211 27
608 27 742 2 11 -3 43 -8 70 -11 83 -12 184 -34 273 -60 30 -9 71 -20 91 -25
64 -17 262 -100 369 -156 512 -270 962 -766 1170 -1288 75 -189 124 -377 155
-586 27 -191 27 -580 0 -770 -3 -19 -13 -71 -21 -115 -9 -44 -18 -91 -20 -105
-9 -51 -57 -208 -91 -300 -70 -189 -179 -393 -296 -555 -118 -164 -323 -385
-357 -385 -11 0 -20 2 -20 5 0 2 29 40 64 83 55 69 130 172 161 223 39 65 110
198 143 269 39 82 116 299 126 350 2 14 9 46 15 73 6 26 14 64 17 85 3 20 7
44 9 52 24 93 24 499 0 620 -2 13 -7 41 -10 62 -11 74 -33 179 -38 185 -3 3
-30 0 -59 -7 -29 -6 -64 -14 -78 -16 -14 -3 -88 -18 -165 -34 -77 -16 -151
-32 -165 -34 -14 -3 -146 -30 -295 -61 -148 -31 -281 -58 -295 -61 -14 -3 -68
-14 -120 -25 -52 -11 -106 -23 -120 -25 -14 -3 -79 -16 -145 -30 -66 -15 -129
-28 -140 -29 -11 -2 -56 -10 -100 -19 -79 -17 -361 -76 -380 -80 -5 -2 -31 -6
-58 -11 -26 -4 -50 -12 -53 -17 -7 -11 14 -128 26 -147 6 -11 17 -11 56 -2 27
6 60 14 74 16 14 3 36 7 50 10 14 3 34 7 45 9 11 3 52 11 90 20 39 8 82 17 95
20 43 8 135 27 145 30 25 6 72 16 95 20 14 2 104 21 200 41 96 20 186 38 200
41 56 11 368 75 405 84 42 9 173 36 215 44 64 11 317 66 331 71 13 5 18 -3 24
-40 3 -26 9 -57 11 -68 13 -53 12 -397 -1 -487 -16 -117 -26 -173 -31 -181 -2
-3 -6 -21 -9 -40 -9 -49 -70 -232 -107 -319 -121 -281 -330 -559 -593 -788
l-60 -52 566 0 567 0 34 43 c270 332 451 671 564 1056 36 123 69 265 80 346 3
28 8 53 10 56 2 3 6 34 9 70 4 35 8 70 10 76 7 20 19 278 18 388 0 100 -11
316 -17 351 -2 11 -7 42 -10 69 -11 83 -26 172 -40 240 -17 81 -81 316 -95
350 -5 11 -28 70 -51 130 -143 372 -368 711 -685 1031 -209 210 -318 302 -525
440 -273 183 -607 330 -915 404 -27 6 -59 14 -70 17 -43 10 -243 44 -290 49
-27 3 -63 8 -80 11 -35 6 -570 15 -576 9z"/>
</g>
</svg>
